<svg width="541" height="106" viewBox="0 0 541 106" fill="none" xmlns="http://www.w3.org/2000/svg">
<path d="M32.5972 105H12.572L31.4847 16.5553L52.0662 13.7741L42.1926 60.2214C48.6823 59.6652 54.3375 55.8641 59.1584 48.8182C64.072 41.7723 66.5288 34.1701 66.5288 26.0117C66.5288 20.0783 64.9991 15.4428 61.9397 12.1053C58.973 8.76775 54.7547 7.09898 49.2849 7.09898C37.9744 7.09898 29.1206 10.112 22.7237 16.1381C16.4194 22.0715 13.2673 30.3227 13.2673 40.8915C13.2673 42.653 13.36 44.1827 13.5455 45.4806C13.8236 46.7786 14.2408 48.0301 14.797 49.2354C14.9825 49.6062 15.0752 49.8843 15.0752 50.0697C15.1679 50.1625 15.2142 50.2552 15.2142 50.3479C10.0225 50.3479 6.22142 49.2817 3.81098 47.1494C1.49325 44.9244 0.334384 41.4941 0.334384 36.8587C0.334384 32.2232 1.86409 27.5877 4.92349 22.9523C8.07561 18.3168 12.4329 14.1449 17.9955 10.4365C22.7237 7.37711 27.7763 5.01303 33.1535 3.34426C38.6233 1.58278 43.9541 0.702041 49.1458 0.702041C59.3438 0.702041 67.3632 3.20519 73.2039 8.2115C79.0446 13.2178 81.9649 19.8465 81.9649 28.0976C81.9649 33.0112 80.8524 37.8321 78.6274 42.5603C76.4951 47.2885 73.482 51.414 69.5882 54.937C65.8799 58.3672 61.6616 60.9631 56.9334 62.7246C52.2052 64.486 47.1526 65.3668 41.7754 65.3668H41.0801L32.5972 105ZM102.441 92.3452C104.851 92.3452 106.984 91.3254 108.838 89.2858C110.785 87.1535 112.361 84.0941 113.566 80.1076L123.022 35.468H143.048L133.035 82.7498C132.85 83.5842 132.711 84.3722 132.618 85.1139C132.525 85.7628 132.479 86.4581 132.479 87.1998C132.479 89.054 132.896 90.3983 133.73 91.2327C134.657 91.9743 136.141 92.3452 138.18 92.3452C140.591 92.3452 142.77 91.279 144.716 89.1467C146.663 87.0144 148.239 84.0013 149.445 80.1076H155.285C152.319 88.6368 148.471 95.0801 143.743 99.4374C139.015 103.702 133.545 105.834 127.333 105.834C123.347 105.834 120.148 104.722 117.738 102.497C115.328 100.179 113.937 96.8879 113.566 92.6233C110.878 97.0734 107.818 100.411 104.388 102.636C101.05 104.768 97.2493 105.834 92.9846 105.834C88.3492 105.834 84.6872 104.397 81.9986 101.523C79.4027 98.5567 78.1048 94.4311 78.1048 89.1467C78.1048 87.9415 78.1975 86.5972 78.3829 85.1139C78.5684 83.5378 78.8465 81.869 79.2173 80.1076L88.6737 35.468H108.699L98.6863 82.7498C98.5008 83.4914 98.3618 84.1868 98.2691 84.8357C98.2691 85.392 98.2691 85.9946 98.2691 86.6436C98.2691 88.4977 98.5936 89.9347 99.2425 90.9545C99.9842 91.8816 101.05 92.3452 102.441 92.3452ZM148.316 89.1467C148.316 87.9415 148.409 86.5972 148.594 85.1139C148.779 83.5378 149.057 81.869 149.428 80.1076L164.308 10.4365L184.89 7.65524L168.897 82.7498C168.712 83.5842 168.573 84.3722 168.48 85.1139C168.387 85.7628 168.341 86.4581 168.341 87.1998C168.341 89.054 168.758 90.3983 169.593 91.2327C170.52 91.9743 172.003 92.3452 174.043 92.3452C176.638 92.3452 179.095 91.2327 181.413 89.0076C183.731 86.6899 185.446 83.7232 186.558 80.1076H192.399C189.432 88.5441 185.446 94.941 180.44 99.2984C175.433 103.656 169.685 105.834 163.196 105.834C158.56 105.834 154.898 104.397 152.21 101.523C149.614 98.5567 148.316 94.4311 148.316 89.1467ZM185.39 89.1467C185.39 87.9415 185.483 86.5972 185.669 85.1139C185.854 83.5378 186.132 81.869 186.503 80.1076L201.383 10.4365L221.964 7.65524L205.972 82.7498C205.786 83.5842 205.647 84.3722 205.555 85.1139C205.462 85.7628 205.416 86.4581 205.416 87.1998C205.416 89.054 205.833 90.3983 206.667 91.2327C207.594 91.9743 209.078 92.3452 211.117 92.3452C213.713 92.3452 216.17 91.2327 218.488 89.0076C220.805 86.6899 222.521 83.7232 223.633 80.1076H229.474C226.507 88.5441 222.521 94.941 217.514 99.2984C212.508 103.656 206.76 105.834 200.27 105.834C195.635 105.834 191.973 104.397 189.284 101.523C186.688 98.5567 185.39 94.4311 185.39 89.1467ZM217.692 83.5842C217.692 78.2997 218.527 72.6908 220.196 66.7574C221.957 60.824 224.321 55.5396 227.288 50.9041C230.718 45.4343 234.844 41.3087 239.665 38.5274C244.485 35.6535 249.863 34.2165 255.796 34.2165C261.729 34.2165 266.179 36.0706 269.146 39.779C272.113 43.4874 273.596 49.0499 273.596 56.4667C273.782 56.5594 273.967 56.6521 274.152 56.7448C274.43 56.7448 274.755 56.7448 275.126 56.7448C278 56.7448 281.43 55.9568 285.417 54.3807C289.403 52.8047 293.111 50.8114 296.542 48.401L297.793 52.1557C295.197 54.937 291.721 57.3474 287.363 59.387C283.099 61.4266 278.371 62.8636 273.179 63.698C272.066 76.2138 268.451 86.3191 262.332 94.0139C256.213 101.709 248.75 105.556 239.943 105.556C232.711 105.556 227.195 103.702 223.394 99.9937C219.593 96.2853 217.692 90.8155 217.692 83.5842ZM256.908 42.6994C252.458 42.6994 248.24 47.1958 244.254 56.1886C240.36 65.1814 238.413 73.7106 238.413 81.7763C238.413 86.1337 238.876 89.1004 239.804 90.6764C240.823 92.2525 242.724 93.0405 245.505 93.0405C248.935 93.0405 252.18 90.2592 255.24 84.6967C258.392 79.1341 260.524 72.2736 261.637 64.1152C260.339 63.8371 259.365 63.2345 258.716 62.3074C258.16 61.2876 257.882 59.9433 257.882 58.2745C257.882 56.513 258.253 54.9833 258.994 53.6854C259.736 52.3875 260.802 51.414 262.193 50.7651C262.007 47.7984 261.498 45.7124 260.663 44.5072C259.921 43.302 258.67 42.6994 256.908 42.6994ZM315.223 90.1202C315.223 88.4514 315.408 86.3654 315.779 83.8623C316.243 81.3591 317.123 77.3726 318.421 71.9028C319.719 66.6184 320.554 62.8173 320.925 60.4995C321.295 58.1818 321.481 56.2349 321.481 54.6589C321.481 52.3411 321.064 50.5796 320.229 49.3744C319.395 48.1692 318.143 47.5666 316.475 47.5666C314.249 47.5666 312.164 48.7255 310.217 51.0432C308.362 53.2682 306.833 56.374 305.628 60.3605L296.171 105H276.146L290.887 35.468H310.912L309.382 42.6994C311.7 40.1035 314.203 38.1566 316.892 36.8587C319.58 35.5607 322.501 34.9118 325.653 34.9118C330.566 34.9118 334.367 36.2561 337.056 38.9446C339.745 41.6332 341.089 45.527 341.089 50.626C341.089 52.7583 340.811 55.3078 340.254 58.2745C339.791 61.1485 338.817 65.5986 337.334 71.6247C336.129 76.3528 335.341 79.6904 334.97 81.6373C334.599 83.5842 334.414 85.2066 334.414 86.5045C334.414 88.4514 334.877 89.9347 335.804 90.9545C336.731 91.8816 338.122 92.3452 339.976 92.3452C342.294 92.3452 344.287 91.5572 345.956 89.9811C347.625 88.405 349.525 85.1139 351.658 80.1076H357.498C354.532 88.7295 350.916 95.1728 346.651 99.4374C342.479 103.702 337.473 105.834 331.632 105.834C326.441 105.834 322.408 104.444 319.534 101.662C316.66 98.7885 315.223 94.941 315.223 90.1202ZM398.195 41.865V42.8384L399.725 35.468H419.75L409.738 82.7498C409.552 83.5842 409.413 84.3722 409.32 85.1139C409.228 85.7628 409.181 86.4581 409.181 87.1998C409.181 89.2394 409.645 90.7691 410.572 91.7889C411.499 92.716 412.936 93.1796 414.883 93.1796C417.293 93.1796 419.472 92.0671 421.419 89.842C423.366 87.5243 424.942 84.2795 426.147 80.1076H431.988C429.021 88.6368 425.174 95.0801 420.445 99.4374C415.717 103.702 410.247 105.834 404.036 105.834C400.049 105.834 396.851 104.722 394.441 102.497C392.123 100.272 390.778 97.1197 390.408 93.0405C387.534 97.3051 384.335 100.504 380.812 102.636C377.382 104.768 373.674 105.834 369.687 105.834C363.939 105.834 359.396 103.887 356.059 99.9937C352.814 96.0999 351.192 90.5837 351.192 83.4451C351.192 78.2534 351.98 72.8299 353.556 67.1746C355.132 61.5193 357.31 56.374 360.092 51.7385C363.522 46.2687 367.508 42.0967 372.051 39.2228C376.594 36.2561 381.554 34.7727 386.931 34.7727C390.547 34.7727 393.328 35.4217 395.275 36.7196C397.222 37.9248 398.195 39.6399 398.195 41.865ZM396.944 48.6791C396.944 47.2885 396.434 46.0832 395.414 45.0634C394.394 43.9509 393.004 43.3947 391.242 43.3947C386.143 43.3947 381.6 47.6593 377.614 56.1886C373.72 64.7178 371.773 73.1544 371.773 81.4982C371.773 85.1139 372.283 87.8488 373.303 89.703C374.323 91.4644 376.13 92.3452 378.726 92.3452C381.137 92.3452 383.454 91.1863 385.679 88.8686C387.997 86.5509 389.527 83.6305 390.269 80.1076L396.944 48.6791ZM431.201 35.468H435.79L439.962 16.2772L460.544 13.4959L455.815 35.468H464.159L463.047 41.0306H454.703L445.803 82.7498C445.617 83.5842 445.478 84.3722 445.386 85.1139C445.293 85.7628 445.247 86.4581 445.247 87.1998C445.247 89.054 445.664 90.3983 446.498 91.2327C447.425 91.9743 448.909 92.3452 450.948 92.3452C453.544 92.3452 456.001 91.2327 458.319 89.0076C460.636 86.6899 462.351 83.7232 463.464 80.1076H469.305C466.338 88.5441 462.351 94.941 457.345 99.2984C452.339 103.656 446.591 105.834 440.101 105.834C435.466 105.834 431.804 104.397 429.115 101.523C426.519 98.5567 425.221 94.4311 425.221 89.1467C425.221 87.9415 425.314 86.5972 425.5 85.1139C425.685 83.5378 425.963 81.869 426.334 80.1076L434.678 41.0306H430.089L431.201 35.468ZM498.152 90.1202C498.152 88.4514 498.337 86.3654 498.708 83.8623C499.172 81.3591 500.052 77.3726 501.35 71.9028C502.648 66.6184 503.483 62.8173 503.853 60.4995C504.224 58.1818 504.41 56.2349 504.41 54.6589C504.41 52.3411 503.946 50.5796 503.019 49.3744C502.185 48.1692 500.933 47.5666 499.264 47.5666C497.039 47.5666 494.861 48.9109 492.728 51.5994C490.689 54.1953 489.344 56.9302 488.695 59.8042L479.1 105H459.075L479.239 10.4365L499.821 7.65524L492.311 42.6994C494.629 40.1035 497.132 38.1566 499.821 36.8587C502.509 35.5607 505.429 34.9118 508.582 34.9118C513.495 34.9118 517.296 36.2561 519.985 38.9446C522.673 41.6332 524.018 45.527 524.018 50.626C524.018 52.7583 523.74 55.3078 523.183 58.2745C522.72 61.1485 521.746 65.5986 520.263 71.6247C519.058 76.3528 518.27 79.6904 517.899 81.6373C517.528 83.5842 517.343 85.2066 517.343 86.5045C517.343 88.4514 517.806 89.9347 518.733 90.9545C519.66 91.8816 521.051 92.3452 522.905 92.3452C525.223 92.3452 527.216 91.5572 528.885 89.9811C530.554 88.405 532.454 85.1139 534.587 80.1076H540.427C537.461 88.7295 533.845 95.1728 529.58 99.4374C525.408 103.702 520.402 105.834 514.561 105.834C509.37 105.834 505.337 104.444 502.463 101.662C499.589 98.7885 498.152 94.941 498.152 90.1202Z" fill="#970666"/>
</svg>
